<mxfile host="app.diagrams.net" modified="2020-10-05T19:32:30.570Z" agent="5.0 (Windows NT 10.0; Win64; x64) AppleWebKit/537.36 (KHTML, like Gecko) Chrome/85.0.4183.121 Safari/537.36" etag="eW1dfFhvl-pTtVEgYTlk" version="13.7.7" type="github">
  <diagram id="prtHgNgQTEPvFCAcTncT" name="Page-1">
    <mxGraphModel dx="1673" dy="896" grid="1" gridSize="10" guides="1" tooltips="1" connect="1" arrows="1" fold="1" page="1" pageScale="1" pageWidth="840" pageHeight="1040" math="0" shadow="0">
      <root>
        <mxCell id="0" />
        <mxCell id="1" parent="0" />
        <mxCell id="nz3eEwS2H0n0i6exMCSu-24" value="Applicant Tracking System" style="swimlane;strokeWidth=2;fontSize=14;fontFamily=Helvetica;fillColor=none;spacing=0;spacingTop=0;" parent="1" vertex="1">
          <mxGeometry x="160" y="80" width="520" height="880" as="geometry" />
        </mxCell>
        <mxCell id="nz3eEwS2H0n0i6exMCSu-67" style="edgeStyle=none;rounded=0;orthogonalLoop=1;jettySize=auto;html=1;exitX=0.01;exitY=0.365;exitDx=0;exitDy=0;entryX=0.973;entryY=0.637;entryDx=0;entryDy=0;strokeWidth=1;fontFamily=Helvetica;fontSize=14;spacing=0;spacingTop=0;dashed=1;exitPerimeter=0;entryPerimeter=0;" parent="nz3eEwS2H0n0i6exMCSu-24" source="nz3eEwS2H0n0i6exMCSu-20" target="nz3eEwS2H0n0i6exMCSu-28" edge="1">
          <mxGeometry relative="1" as="geometry" />
        </mxCell>
        <mxCell id="nz3eEwS2H0n0i6exMCSu-92" value="&amp;lt;&amp;lt;extend&amp;gt;&amp;gt;" style="edgeLabel;html=1;align=center;verticalAlign=middle;resizable=0;points=[];fontSize=11;fontFamily=Helvetica;rotation=16;" parent="nz3eEwS2H0n0i6exMCSu-67" vertex="1" connectable="0">
          <mxGeometry x="-0.5064" y="3" relative="1" as="geometry">
            <mxPoint x="-11.55" y="-14.95" as="offset" />
          </mxGeometry>
        </mxCell>
        <mxCell id="nz3eEwS2H0n0i6exMCSu-68" style="edgeStyle=none;rounded=0;orthogonalLoop=1;jettySize=auto;html=1;strokeWidth=1;fontFamily=Helvetica;fontSize=14;spacing=0;spacingTop=0;entryX=0.973;entryY=0.669;entryDx=0;entryDy=0;entryPerimeter=0;dashed=1;" parent="nz3eEwS2H0n0i6exMCSu-24" source="nz3eEwS2H0n0i6exMCSu-75" target="nz3eEwS2H0n0i6exMCSu-29" edge="1">
          <mxGeometry relative="1" as="geometry">
            <mxPoint x="380" y="110" as="targetPoint" />
            <Array as="points" />
          </mxGeometry>
        </mxCell>
        <mxCell id="nz3eEwS2H0n0i6exMCSu-95" value="&amp;lt;&amp;lt;extend&amp;gt;&amp;gt;" style="edgeLabel;html=1;align=center;verticalAlign=middle;resizable=0;points=[];fontSize=11;fontFamily=Helvetica;rotation=12;" parent="nz3eEwS2H0n0i6exMCSu-68" vertex="1" connectable="0">
          <mxGeometry x="-0.3841" y="1" relative="1" as="geometry">
            <mxPoint x="-5.91" y="-13.86" as="offset" />
          </mxGeometry>
        </mxCell>
        <mxCell id="nz3eEwS2H0n0i6exMCSu-78" style="edgeStyle=none;rounded=0;orthogonalLoop=1;jettySize=auto;html=1;strokeWidth=1;fontFamily=Helvetica;fontSize=14;spacing=0;spacingTop=0;dashed=1;entryX=0.556;entryY=0;entryDx=0;entryDy=0;entryPerimeter=0;exitX=0;exitY=1;exitDx=0;exitDy=0;" parent="nz3eEwS2H0n0i6exMCSu-24" source="nz3eEwS2H0n0i6exMCSu-20" target="nz3eEwS2H0n0i6exMCSu-75" edge="1">
          <mxGeometry relative="1" as="geometry">
            <mxPoint x="300" y="130" as="targetPoint" />
          </mxGeometry>
        </mxCell>
        <mxCell id="nz3eEwS2H0n0i6exMCSu-93" value="&amp;lt;&amp;lt;extend&amp;gt;&amp;gt;" style="edgeLabel;html=1;align=center;verticalAlign=middle;resizable=0;points=[];fontSize=11;fontFamily=Helvetica;rotation=15;" parent="nz3eEwS2H0n0i6exMCSu-78" vertex="1" connectable="0">
          <mxGeometry x="-0.373" y="-1" relative="1" as="geometry">
            <mxPoint x="-1.9399999999999995" y="4.050000000000001" as="offset" />
          </mxGeometry>
        </mxCell>
        <mxCell id="nz3eEwS2H0n0i6exMCSu-20" value="&lt;span style=&quot;font-size: 13px&quot;&gt;Manage Accounts&lt;/span&gt;" style="ellipse;whiteSpace=wrap;html=1;strokeWidth=2;fillColor=none;fontFamily=Helvetica;spacing=0;spacingTop=0;" parent="nz3eEwS2H0n0i6exMCSu-24" vertex="1">
          <mxGeometry x="290" y="60" width="90" height="70" as="geometry" />
        </mxCell>
        <mxCell id="nz3eEwS2H0n0i6exMCSu-28" value="&lt;span style=&quot;font-size: 13px&quot;&gt;Add New Employee&lt;/span&gt;" style="ellipse;whiteSpace=wrap;html=1;strokeWidth=2;fillColor=none;fontFamily=Helvetica;spacing=0;spacingTop=0;" parent="nz3eEwS2H0n0i6exMCSu-24" vertex="1">
          <mxGeometry x="134" y="34" width="85" height="50" as="geometry" />
        </mxCell>
        <mxCell id="nz3eEwS2H0n0i6exMCSu-29" value="&lt;span style=&quot;font-size: 13px&quot;&gt;Delete Employee&lt;/span&gt;" style="ellipse;whiteSpace=wrap;html=1;strokeWidth=2;fillColor=none;fontFamily=Helvetica;spacing=0;spacingTop=0;" parent="nz3eEwS2H0n0i6exMCSu-24" vertex="1">
          <mxGeometry x="110" y="130" width="80" height="50" as="geometry" />
        </mxCell>
        <mxCell id="nz3eEwS2H0n0i6exMCSu-61" style="edgeStyle=none;rounded=0;orthogonalLoop=1;jettySize=auto;html=1;exitX=1;exitY=0;exitDx=0;exitDy=0;entryX=0;entryY=0.5;entryDx=0;entryDy=0;strokeWidth=1;fontFamily=Helvetica;fontSize=14;spacing=0;spacingTop=0;dashed=1;" parent="nz3eEwS2H0n0i6exMCSu-24" source="nz3eEwS2H0n0i6exMCSu-31" target="nz3eEwS2H0n0i6exMCSu-32" edge="1">
          <mxGeometry relative="1" as="geometry" />
        </mxCell>
        <mxCell id="nz3eEwS2H0n0i6exMCSu-87" value="&amp;lt;&amp;lt;include&amp;gt;&amp;gt;" style="edgeLabel;html=1;align=center;verticalAlign=middle;resizable=0;points=[];fontSize=11;fontFamily=Helvetica;rotation=350;" parent="nz3eEwS2H0n0i6exMCSu-61" vertex="1" connectable="0">
          <mxGeometry x="0.2421" y="2" relative="1" as="geometry">
            <mxPoint x="-17.03" y="-5.35" as="offset" />
          </mxGeometry>
        </mxCell>
        <mxCell id="nz3eEwS2H0n0i6exMCSu-62" style="edgeStyle=none;rounded=0;orthogonalLoop=1;jettySize=auto;html=1;exitX=1;exitY=1;exitDx=0;exitDy=0;strokeWidth=1;fontFamily=Helvetica;fontSize=14;spacing=0;spacingTop=0;dashed=1;" parent="nz3eEwS2H0n0i6exMCSu-24" source="nz3eEwS2H0n0i6exMCSu-31" target="nz3eEwS2H0n0i6exMCSu-36" edge="1">
          <mxGeometry relative="1" as="geometry" />
        </mxCell>
        <mxCell id="nz3eEwS2H0n0i6exMCSu-88" value="&amp;lt;&amp;lt;extend&amp;gt;&amp;gt;" style="edgeLabel;html=1;align=center;verticalAlign=middle;resizable=0;points=[];fontSize=11;fontFamily=Helvetica;rotation=21;" parent="nz3eEwS2H0n0i6exMCSu-62" vertex="1" connectable="0">
          <mxGeometry x="-0.3885" y="-1" relative="1" as="geometry">
            <mxPoint x="5.47" y="8.97" as="offset" />
          </mxGeometry>
        </mxCell>
        <mxCell id="nz3eEwS2H0n0i6exMCSu-31" value="&lt;span style=&quot;font-size: 13px&quot;&gt;Log In&lt;/span&gt;" style="ellipse;whiteSpace=wrap;html=1;strokeWidth=2;fillColor=none;fontFamily=Helvetica;spacing=0;spacingTop=0;" parent="nz3eEwS2H0n0i6exMCSu-24" vertex="1">
          <mxGeometry x="30" y="230" width="70" height="50" as="geometry" />
        </mxCell>
        <mxCell id="nz3eEwS2H0n0i6exMCSu-32" value="&lt;span style=&quot;font-size: 13px&quot;&gt;Verify Log In&lt;/span&gt;" style="ellipse;whiteSpace=wrap;html=1;strokeWidth=2;fillColor=none;fontFamily=Helvetica;spacing=0;spacingTop=0;" parent="nz3eEwS2H0n0i6exMCSu-24" vertex="1">
          <mxGeometry x="170" y="200" width="50" height="40" as="geometry" />
        </mxCell>
        <mxCell id="nz3eEwS2H0n0i6exMCSu-63" style="edgeStyle=none;rounded=0;orthogonalLoop=1;jettySize=auto;html=1;strokeWidth=1;fontFamily=Helvetica;fontSize=14;spacing=0;spacingTop=0;dashed=1;entryX=0;entryY=0.3;entryDx=0;entryDy=0;entryPerimeter=0;" parent="nz3eEwS2H0n0i6exMCSu-24" source="nz3eEwS2H0n0i6exMCSu-36" target="nz3eEwS2H0n0i6exMCSu-37" edge="1">
          <mxGeometry relative="1" as="geometry" />
        </mxCell>
        <mxCell id="nz3eEwS2H0n0i6exMCSu-90" value="&amp;lt;&amp;lt;include&amp;gt;&amp;gt;" style="edgeLabel;html=1;align=center;verticalAlign=middle;resizable=0;points=[];fontSize=11;fontFamily=Helvetica;rotation=-15;" parent="nz3eEwS2H0n0i6exMCSu-63" vertex="1" connectable="0">
          <mxGeometry x="-0.4558" y="-1" relative="1" as="geometry">
            <mxPoint x="6.68" y="3.55" as="offset" />
          </mxGeometry>
        </mxCell>
        <mxCell id="nz3eEwS2H0n0i6exMCSu-36" value="&lt;span style=&quot;font-size: 13px&quot;&gt;Reset Password&lt;/span&gt;" style="ellipse;whiteSpace=wrap;html=1;strokeWidth=2;fillColor=none;fontFamily=Helvetica;spacing=0;spacingTop=0;" parent="nz3eEwS2H0n0i6exMCSu-24" vertex="1">
          <mxGeometry x="160" y="285" width="90" height="50" as="geometry" />
        </mxCell>
        <mxCell id="nz3eEwS2H0n0i6exMCSu-64" style="edgeStyle=none;rounded=0;orthogonalLoop=1;jettySize=auto;html=1;exitX=1.017;exitY=0.3;exitDx=0;exitDy=0;strokeWidth=1;fontFamily=Helvetica;fontSize=14;spacing=0;spacingTop=0;dashed=1;exitPerimeter=0;" parent="nz3eEwS2H0n0i6exMCSu-24" source="nz3eEwS2H0n0i6exMCSu-37" target="nz3eEwS2H0n0i6exMCSu-38" edge="1">
          <mxGeometry relative="1" as="geometry" />
        </mxCell>
        <mxCell id="nz3eEwS2H0n0i6exMCSu-91" value="&amp;lt;&amp;lt;include&amp;gt;&amp;gt;" style="edgeLabel;html=1;align=center;verticalAlign=middle;resizable=0;points=[];fontSize=11;fontFamily=Helvetica;rotation=5;" parent="nz3eEwS2H0n0i6exMCSu-64" vertex="1" connectable="0">
          <mxGeometry x="-0.1959" y="1" relative="1" as="geometry">
            <mxPoint x="2.57" as="offset" />
          </mxGeometry>
        </mxCell>
        <mxCell id="nz3eEwS2H0n0i6exMCSu-37" value="&lt;span style=&quot;font-size: 13px&quot;&gt;Verify Identity&lt;/span&gt;" style="ellipse;whiteSpace=wrap;html=1;strokeWidth=2;fillColor=none;fontFamily=Helvetica;spacing=0;spacingTop=0;" parent="nz3eEwS2H0n0i6exMCSu-24" vertex="1">
          <mxGeometry x="300" y="335" width="60" height="40" as="geometry" />
        </mxCell>
        <mxCell id="nz3eEwS2H0n0i6exMCSu-38" value="&lt;span style=&quot;font-size: 13px&quot;&gt;Enter New Password&lt;/span&gt;" style="ellipse;whiteSpace=wrap;html=1;strokeWidth=2;fillColor=none;fontFamily=Helvetica;spacing=0;spacingTop=0;" parent="nz3eEwS2H0n0i6exMCSu-24" vertex="1">
          <mxGeometry x="420" y="270" width="80" height="60" as="geometry" />
        </mxCell>
        <mxCell id="nz3eEwS2H0n0i6exMCSu-103" style="edgeStyle=none;rounded=0;orthogonalLoop=1;jettySize=auto;html=1;exitX=0.581;exitY=0.98;exitDx=0;exitDy=0;entryX=0.01;entryY=0.382;entryDx=0;entryDy=0;labelBackgroundColor=none;strokeWidth=1;fontFamily=Helvetica;fontSize=11;exitPerimeter=0;dashed=1;entryPerimeter=0;" parent="nz3eEwS2H0n0i6exMCSu-24" source="nz3eEwS2H0n0i6exMCSu-39" target="nz3eEwS2H0n0i6exMCSu-101" edge="1">
          <mxGeometry relative="1" as="geometry" />
        </mxCell>
        <mxCell id="nz3eEwS2H0n0i6exMCSu-109" value="&amp;lt;&amp;lt;extend&amp;gt;&amp;gt;" style="edgeLabel;html=1;align=center;verticalAlign=middle;resizable=0;points=[];fontSize=11;fontFamily=Helvetica;rotation=-15;" parent="nz3eEwS2H0n0i6exMCSu-103" vertex="1" connectable="0">
          <mxGeometry x="-0.459" relative="1" as="geometry">
            <mxPoint x="12.23" y="4.84" as="offset" />
          </mxGeometry>
        </mxCell>
        <mxCell id="nz3eEwS2H0n0i6exMCSu-104" style="edgeStyle=none;rounded=0;orthogonalLoop=1;jettySize=auto;html=1;entryX=0.7;entryY=0.979;entryDx=0;entryDy=0;labelBackgroundColor=none;strokeWidth=1;fontFamily=Helvetica;fontSize=11;dashed=1;entryPerimeter=0;exitX=0.19;exitY=0.089;exitDx=0;exitDy=0;exitPerimeter=0;" parent="nz3eEwS2H0n0i6exMCSu-24" source="nz3eEwS2H0n0i6exMCSu-39" target="nz3eEwS2H0n0i6exMCSu-102" edge="1">
          <mxGeometry relative="1" as="geometry" />
        </mxCell>
        <mxCell id="nz3eEwS2H0n0i6exMCSu-106" value="&amp;lt;&amp;lt;extend&amp;gt;&amp;gt;" style="edgeLabel;html=1;align=center;verticalAlign=middle;resizable=0;points=[];fontSize=11;fontFamily=Helvetica;" parent="nz3eEwS2H0n0i6exMCSu-104" vertex="1" connectable="0">
          <mxGeometry x="0.3194" relative="1" as="geometry">
            <mxPoint x="3.3199999999999967" y="6.02" as="offset" />
          </mxGeometry>
        </mxCell>
        <mxCell id="nz3eEwS2H0n0i6exMCSu-39" value="&lt;span style=&quot;font-size: 13px&quot;&gt;View Templates&lt;/span&gt;" style="ellipse;whiteSpace=wrap;html=1;strokeWidth=2;fillColor=none;fontFamily=Helvetica;spacing=0;spacingTop=0;" parent="nz3eEwS2H0n0i6exMCSu-24" vertex="1">
          <mxGeometry x="75" y="380" width="105" height="50" as="geometry" />
        </mxCell>
        <mxCell id="nz3eEwS2H0n0i6exMCSu-116" style="edgeStyle=none;rounded=0;orthogonalLoop=1;jettySize=auto;html=1;exitX=0.035;exitY=0.234;exitDx=0;exitDy=0;dashed=1;labelBackgroundColor=#ffffff;strokeWidth=1;fontFamily=Helvetica;fontSize=11;exitPerimeter=0;entryX=0.64;entryY=0.967;entryDx=0;entryDy=0;entryPerimeter=0;" parent="nz3eEwS2H0n0i6exMCSu-24" source="nz3eEwS2H0n0i6exMCSu-69" target="nz3eEwS2H0n0i6exMCSu-114" edge="1">
          <mxGeometry relative="1" as="geometry" />
        </mxCell>
        <mxCell id="nz3eEwS2H0n0i6exMCSu-117" value="&amp;lt;&amp;lt;extend&amp;gt;&amp;gt;" style="edgeLabel;html=1;align=center;verticalAlign=middle;resizable=0;points=[];fontSize=11;fontFamily=Helvetica;rotation=-15;" parent="nz3eEwS2H0n0i6exMCSu-116" vertex="1" connectable="0">
          <mxGeometry x="-0.6544" y="1" relative="1" as="geometry">
            <mxPoint x="-22.009999999999998" y="-25.2" as="offset" />
          </mxGeometry>
        </mxCell>
        <mxCell id="nz3eEwS2H0n0i6exMCSu-69" value="&lt;span style=&quot;font-size: 13px&quot;&gt;Send Feedback to Applicant&lt;/span&gt;" style="ellipse;whiteSpace=wrap;html=1;strokeWidth=2;fillColor=none;fontFamily=Helvetica;spacing=0;spacingTop=0;labelBackgroundColor=none;labelBorderColor=none;" parent="nz3eEwS2H0n0i6exMCSu-24" vertex="1">
          <mxGeometry x="235" y="790" width="100" height="70" as="geometry" />
        </mxCell>
        <mxCell id="nz3eEwS2H0n0i6exMCSu-79" style="edgeStyle=none;rounded=0;orthogonalLoop=1;jettySize=auto;html=1;exitX=1;exitY=0.5;exitDx=0;exitDy=0;strokeWidth=1;fontFamily=Helvetica;fontSize=14;spacing=0;spacingTop=0;dashed=1;" parent="nz3eEwS2H0n0i6exMCSu-24" source="nz3eEwS2H0n0i6exMCSu-75" target="nz3eEwS2H0n0i6exMCSu-77" edge="1">
          <mxGeometry relative="1" as="geometry" />
        </mxCell>
        <mxCell id="nz3eEwS2H0n0i6exMCSu-96" value="&amp;lt;&amp;lt;extend&amp;gt;&amp;gt;" style="edgeLabel;html=1;align=center;verticalAlign=middle;resizable=0;points=[];fontSize=11;fontFamily=Helvetica;rotation=353;" parent="nz3eEwS2H0n0i6exMCSu-79" vertex="1" connectable="0">
          <mxGeometry x="-0.2611" y="1" relative="1" as="geometry">
            <mxPoint x="6.789999999999999" y="-8.879999999999999" as="offset" />
          </mxGeometry>
        </mxCell>
        <mxCell id="nz3eEwS2H0n0i6exMCSu-80" style="edgeStyle=none;rounded=0;orthogonalLoop=1;jettySize=auto;html=1;exitX=0.5;exitY=1;exitDx=0;exitDy=0;entryX=0.31;entryY=0.04;entryDx=0;entryDy=0;strokeWidth=1;fontFamily=Helvetica;fontSize=14;spacing=0;spacingTop=0;entryPerimeter=0;dashed=1;" parent="nz3eEwS2H0n0i6exMCSu-24" source="nz3eEwS2H0n0i6exMCSu-75" target="nz3eEwS2H0n0i6exMCSu-76" edge="1">
          <mxGeometry relative="1" as="geometry" />
        </mxCell>
        <mxCell id="nz3eEwS2H0n0i6exMCSu-97" value="&amp;lt;&amp;lt;extend&amp;gt;&amp;gt;" style="edgeLabel;html=1;align=center;verticalAlign=middle;resizable=0;points=[];fontSize=11;fontFamily=Helvetica;" parent="nz3eEwS2H0n0i6exMCSu-80" vertex="1" connectable="0">
          <mxGeometry x="-0.3738" relative="1" as="geometry">
            <mxPoint x="5.02" y="2" as="offset" />
          </mxGeometry>
        </mxCell>
        <mxCell id="nz3eEwS2H0n0i6exMCSu-75" value="&lt;span style=&quot;font-size: 13px&quot;&gt;Edit Account&lt;br&gt;Details&lt;br&gt;&lt;/span&gt;" style="ellipse;whiteSpace=wrap;html=1;strokeWidth=2;fillColor=none;fontFamily=Helvetica;spacing=0;spacingTop=0;" parent="nz3eEwS2H0n0i6exMCSu-24" vertex="1">
          <mxGeometry x="240" y="160" width="90" height="50" as="geometry" />
        </mxCell>
        <mxCell id="nz3eEwS2H0n0i6exMCSu-76" value="&lt;span style=&quot;font-size: 13px&quot;&gt;Reset Password Manually&lt;/span&gt;" style="ellipse;whiteSpace=wrap;html=1;strokeWidth=2;fillColor=none;fontFamily=Helvetica;spacing=0;spacingTop=0;" parent="nz3eEwS2H0n0i6exMCSu-24" vertex="1">
          <mxGeometry x="290" y="240" width="90" height="60" as="geometry" />
        </mxCell>
        <mxCell id="nz3eEwS2H0n0i6exMCSu-77" value="&lt;span style=&quot;font-size: 13px&quot;&gt;Change Permissions&lt;/span&gt;" style="ellipse;whiteSpace=wrap;html=1;strokeWidth=2;fillColor=none;fontFamily=Helvetica;spacing=0;spacingTop=0;" parent="nz3eEwS2H0n0i6exMCSu-24" vertex="1">
          <mxGeometry x="400" y="140" width="90" height="60" as="geometry" />
        </mxCell>
        <mxCell id="nz3eEwS2H0n0i6exMCSu-100" value="&lt;span style=&quot;font-size: 13px&quot;&gt;Delete Template&lt;/span&gt;" style="ellipse;whiteSpace=wrap;html=1;strokeWidth=2;fillColor=none;fontFamily=Helvetica;spacing=0;spacingTop=0;" parent="nz3eEwS2H0n0i6exMCSu-24" vertex="1">
          <mxGeometry x="330" y="440" width="70" height="50" as="geometry" />
        </mxCell>
        <mxCell id="nz3eEwS2H0n0i6exMCSu-105" style="edgeStyle=none;rounded=0;orthogonalLoop=1;jettySize=auto;html=1;exitX=1;exitY=0.5;exitDx=0;exitDy=0;dashed=1;labelBackgroundColor=none;strokeWidth=1;fontFamily=Helvetica;fontSize=11;entryX=0;entryY=0.5;entryDx=0;entryDy=0;" parent="nz3eEwS2H0n0i6exMCSu-24" source="nz3eEwS2H0n0i6exMCSu-101" target="nz3eEwS2H0n0i6exMCSu-100" edge="1">
          <mxGeometry relative="1" as="geometry">
            <mxPoint x="330" y="450" as="targetPoint" />
          </mxGeometry>
        </mxCell>
        <mxCell id="nz3eEwS2H0n0i6exMCSu-110" value="&amp;lt;&amp;lt;extend&amp;gt;&amp;gt;" style="edgeLabel;html=1;align=center;verticalAlign=middle;resizable=0;points=[];fontSize=11;fontFamily=Helvetica;rotation=355;" parent="nz3eEwS2H0n0i6exMCSu-105" vertex="1" connectable="0">
          <mxGeometry x="-0.2926" y="2" relative="1" as="geometry">
            <mxPoint x="7.6800000000000015" y="7.549999999999999" as="offset" />
          </mxGeometry>
        </mxCell>
        <mxCell id="nz3eEwS2H0n0i6exMCSu-101" value="&lt;span style=&quot;font-size: 13px&quot;&gt;Edit Template&lt;/span&gt;" style="ellipse;whiteSpace=wrap;html=1;strokeWidth=2;fillColor=none;fontFamily=Helvetica;spacing=0;spacingTop=0;" parent="nz3eEwS2H0n0i6exMCSu-24" vertex="1">
          <mxGeometry x="190" y="450" width="65" height="46" as="geometry" />
        </mxCell>
        <mxCell id="nz3eEwS2H0n0i6exMCSu-102" value="&lt;span style=&quot;font-size: 13px&quot;&gt;Create New&lt;/span&gt;" style="ellipse;whiteSpace=wrap;html=1;strokeWidth=2;fillColor=none;fontFamily=Helvetica;spacing=0;spacingTop=0;" parent="nz3eEwS2H0n0i6exMCSu-24" vertex="1">
          <mxGeometry x="30" y="310" width="60" height="40" as="geometry" />
        </mxCell>
        <mxCell id="nz3eEwS2H0n0i6exMCSu-113" style="edgeStyle=none;rounded=0;orthogonalLoop=1;jettySize=auto;html=1;entryX=0.5;entryY=0;entryDx=0;entryDy=0;dashed=1;labelBackgroundColor=#ffffff;strokeWidth=1;fontFamily=Helvetica;fontSize=11;" parent="nz3eEwS2H0n0i6exMCSu-24" source="nz3eEwS2H0n0i6exMCSu-111" target="nz3eEwS2H0n0i6exMCSu-69" edge="1">
          <mxGeometry relative="1" as="geometry" />
        </mxCell>
        <mxCell id="nz3eEwS2H0n0i6exMCSu-115" value="&amp;lt;&amp;lt;extend&amp;gt;&amp;gt;" style="edgeLabel;html=1;align=center;verticalAlign=middle;resizable=0;points=[];fontSize=11;fontFamily=Helvetica;" parent="nz3eEwS2H0n0i6exMCSu-113" vertex="1" connectable="0">
          <mxGeometry x="-0.5027" y="-1" relative="1" as="geometry">
            <mxPoint y="3" as="offset" />
          </mxGeometry>
        </mxCell>
        <mxCell id="HZq2xd75iQ1T5V56bEnD-10" style="edgeStyle=none;rounded=0;orthogonalLoop=1;jettySize=auto;html=1;exitX=1.01;exitY=0.314;exitDx=0;exitDy=0;dashed=1;entryX=0.014;entryY=0.729;entryDx=0;entryDy=0;entryPerimeter=0;exitPerimeter=0;" parent="nz3eEwS2H0n0i6exMCSu-24" source="nz3eEwS2H0n0i6exMCSu-111" target="HZq2xd75iQ1T5V56bEnD-9" edge="1">
          <mxGeometry relative="1" as="geometry">
            <mxPoint x="400" y="518" as="targetPoint" />
          </mxGeometry>
        </mxCell>
        <mxCell id="HZq2xd75iQ1T5V56bEnD-11" value="&amp;lt;&amp;lt;include&amp;gt;&amp;gt;" style="edgeLabel;html=1;align=center;verticalAlign=middle;resizable=0;points=[];rotation=324;" parent="HZq2xd75iQ1T5V56bEnD-10" vertex="1" connectable="0">
          <mxGeometry x="-0.4052" y="-2" relative="1" as="geometry">
            <mxPoint x="10.82" y="0.07000000000000028" as="offset" />
          </mxGeometry>
        </mxCell>
        <mxCell id="nz3eEwS2H0n0i6exMCSu-111" value="&lt;span style=&quot;font-size: 13px&quot;&gt;Generate Feedback&lt;/span&gt;" style="ellipse;whiteSpace=wrap;html=1;strokeWidth=2;fillColor=none;fontFamily=Helvetica;spacing=0;spacingTop=0;" parent="nz3eEwS2H0n0i6exMCSu-24" vertex="1">
          <mxGeometry x="260" y="670" width="70" height="50" as="geometry" />
        </mxCell>
        <mxCell id="nz3eEwS2H0n0i6exMCSu-112" style="edgeStyle=none;rounded=0;orthogonalLoop=1;jettySize=auto;html=1;exitX=0.722;exitY=0.94;exitDx=0;exitDy=0;dashed=1;labelBackgroundColor=#ffffff;strokeWidth=1;fontFamily=Helvetica;fontSize=11;entryX=-0.034;entryY=0.37;entryDx=0;entryDy=0;exitPerimeter=0;entryPerimeter=0;" parent="nz3eEwS2H0n0i6exMCSu-24" source="nz3eEwS2H0n0i6exMCSu-30" target="nz3eEwS2H0n0i6exMCSu-111" edge="1">
          <mxGeometry relative="1" as="geometry">
            <mxPoint x="330" y="510" as="targetPoint" />
          </mxGeometry>
        </mxCell>
        <mxCell id="HZq2xd75iQ1T5V56bEnD-8" value="&amp;lt;&amp;lt;extend&amp;gt;&amp;gt;" style="edgeLabel;html=1;align=center;verticalAlign=middle;resizable=0;points=[];rotation=-30;" parent="nz3eEwS2H0n0i6exMCSu-112" vertex="1" connectable="0">
          <mxGeometry x="-0.3186" y="-1" relative="1" as="geometry">
            <mxPoint x="5.38" y="-0.6599999999999993" as="offset" />
          </mxGeometry>
        </mxCell>
        <mxCell id="nz3eEwS2H0n0i6exMCSu-114" value="&lt;span style=&quot;font-size: 13px&quot;&gt;Select Multiple Applicants&lt;/span&gt;" style="ellipse;whiteSpace=wrap;html=1;strokeWidth=2;fillColor=none;fontFamily=Helvetica;spacing=0;spacingTop=0;" parent="nz3eEwS2H0n0i6exMCSu-24" vertex="1">
          <mxGeometry x="100" y="690" width="100" height="60" as="geometry" />
        </mxCell>
        <mxCell id="HZq2xd75iQ1T5V56bEnD-9" value="&lt;span style=&quot;font-size: 13px&quot;&gt;Save&lt;/span&gt;" style="ellipse;whiteSpace=wrap;html=1;strokeWidth=2;fillColor=none;fontFamily=Helvetica;spacing=0;spacingTop=0;" parent="nz3eEwS2H0n0i6exMCSu-24" vertex="1">
          <mxGeometry x="380" y="620" width="60" height="40" as="geometry" />
        </mxCell>
        <mxCell id="f7idqGMZRha9CQDnQLxr-3" style="rounded=0;orthogonalLoop=1;jettySize=auto;html=1;exitX=0;exitY=1;exitDx=0;exitDy=0;entryX=1;entryY=0;entryDx=0;entryDy=0;dashed=1;" edge="1" parent="nz3eEwS2H0n0i6exMCSu-24" source="HZq2xd75iQ1T5V56bEnD-14" target="f7idqGMZRha9CQDnQLxr-2">
          <mxGeometry relative="1" as="geometry" />
        </mxCell>
        <mxCell id="f7idqGMZRha9CQDnQLxr-7" value="&amp;lt;&amp;lt;extend&amp;gt;&amp;gt;" style="edgeLabel;html=1;align=center;verticalAlign=middle;resizable=0;points=[];rotation=10;" vertex="1" connectable="0" parent="f7idqGMZRha9CQDnQLxr-3">
          <mxGeometry x="-0.3825" relative="1" as="geometry">
            <mxPoint x="-9.489999999999998" y="-0.64" as="offset" />
          </mxGeometry>
        </mxCell>
        <mxCell id="f7idqGMZRha9CQDnQLxr-4" style="edgeStyle=none;rounded=0;orthogonalLoop=1;jettySize=auto;html=1;exitX=0.5;exitY=1;exitDx=0;exitDy=0;entryX=0.5;entryY=0;entryDx=0;entryDy=0;dashed=1;" edge="1" parent="nz3eEwS2H0n0i6exMCSu-24" source="HZq2xd75iQ1T5V56bEnD-14" target="nz3eEwS2H0n0i6exMCSu-30">
          <mxGeometry relative="1" as="geometry" />
        </mxCell>
        <mxCell id="f7idqGMZRha9CQDnQLxr-9" value="&amp;lt;&amp;lt;extend&amp;gt;&amp;gt;" style="edgeLabel;html=1;align=center;verticalAlign=middle;resizable=0;points=[];rotation=355;" vertex="1" connectable="0" parent="f7idqGMZRha9CQDnQLxr-4">
          <mxGeometry x="-0.5767" relative="1" as="geometry">
            <mxPoint x="2.84" y="9.18" as="offset" />
          </mxGeometry>
        </mxCell>
        <mxCell id="HZq2xd75iQ1T5V56bEnD-14" value="&lt;span style=&quot;font-size: 13px&quot;&gt;View Applications&lt;/span&gt;" style="ellipse;whiteSpace=wrap;html=1;strokeWidth=2;fillColor=none;fontFamily=Helvetica;spacing=0;spacingTop=0;" parent="nz3eEwS2H0n0i6exMCSu-24" vertex="1">
          <mxGeometry x="140" y="510" width="90" height="50" as="geometry" />
        </mxCell>
        <mxCell id="f7idqGMZRha9CQDnQLxr-6" style="edgeStyle=none;rounded=0;orthogonalLoop=1;jettySize=auto;html=1;exitX=0.956;exitY=0.22;exitDx=0;exitDy=0;entryX=0.036;entryY=0.723;entryDx=0;entryDy=0;entryPerimeter=0;exitPerimeter=0;dashed=1;" edge="1" parent="nz3eEwS2H0n0i6exMCSu-24" source="nz3eEwS2H0n0i6exMCSu-30" target="xuXCfs7UTK-jvbIzCqjc-1">
          <mxGeometry relative="1" as="geometry" />
        </mxCell>
        <mxCell id="f7idqGMZRha9CQDnQLxr-10" value="&amp;lt;&amp;lt;extend&amp;gt;&amp;gt;" style="edgeLabel;html=1;align=center;verticalAlign=middle;resizable=0;points=[];rotation=15;" vertex="1" connectable="0" parent="f7idqGMZRha9CQDnQLxr-6">
          <mxGeometry x="-0.4258" y="-2" relative="1" as="geometry">
            <mxPoint x="6.29" y="-7.95" as="offset" />
          </mxGeometry>
        </mxCell>
        <mxCell id="nz3eEwS2H0n0i6exMCSu-30" value="&lt;span style=&quot;font-size: 13px&quot;&gt;Select Application&lt;/span&gt;" style="ellipse;whiteSpace=wrap;html=1;strokeWidth=2;fillColor=none;fontFamily=Helvetica;spacing=0;spacingTop=0;" parent="nz3eEwS2H0n0i6exMCSu-24" vertex="1">
          <mxGeometry x="150" y="610" width="90" height="50" as="geometry" />
        </mxCell>
        <mxCell id="f7idqGMZRha9CQDnQLxr-5" style="edgeStyle=none;rounded=0;orthogonalLoop=1;jettySize=auto;html=1;exitX=0.95;exitY=0.767;exitDx=0;exitDy=0;entryX=0;entryY=0.38;entryDx=0;entryDy=0;entryPerimeter=0;exitPerimeter=0;dashed=1;" edge="1" parent="nz3eEwS2H0n0i6exMCSu-24" source="f7idqGMZRha9CQDnQLxr-2" target="nz3eEwS2H0n0i6exMCSu-30">
          <mxGeometry relative="1" as="geometry" />
        </mxCell>
        <mxCell id="f7idqGMZRha9CQDnQLxr-8" value="&amp;lt;&amp;lt;extend&amp;gt;&amp;gt;" style="edgeLabel;html=1;align=center;verticalAlign=middle;resizable=0;points=[];rotation=-30;" vertex="1" connectable="0" parent="f7idqGMZRha9CQDnQLxr-5">
          <mxGeometry x="-0.5103" relative="1" as="geometry">
            <mxPoint x="4.66" y="0.79" as="offset" />
          </mxGeometry>
        </mxCell>
        <mxCell id="f7idqGMZRha9CQDnQLxr-2" value="&lt;span style=&quot;font-size: 13px&quot;&gt;Filter or Search Applications&lt;/span&gt;" style="ellipse;whiteSpace=wrap;html=1;strokeWidth=2;fillColor=none;fontFamily=Helvetica;spacing=0;spacingTop=0;" vertex="1" parent="nz3eEwS2H0n0i6exMCSu-24">
          <mxGeometry x="15" y="570" width="100" height="60" as="geometry" />
        </mxCell>
        <mxCell id="xuXCfs7UTK-jvbIzCqjc-1" value="&lt;span style=&quot;font-size: 13px&quot;&gt;Review Attached Documents&lt;/span&gt;" style="ellipse;whiteSpace=wrap;html=1;strokeWidth=2;fillColor=none;fontFamily=Helvetica;spacing=0;spacingTop=0;" parent="nz3eEwS2H0n0i6exMCSu-24" vertex="1">
          <mxGeometry x="290" y="540" width="110" height="65" as="geometry" />
        </mxCell>
        <mxCell id="nz3eEwS2H0n0i6exMCSu-60" style="edgeStyle=none;rounded=0;orthogonalLoop=1;jettySize=auto;html=1;entryX=-0.024;entryY=0.4;entryDx=0;entryDy=0;strokeWidth=1;fontFamily=Helvetica;fontSize=14;entryPerimeter=0;spacing=0;spacingTop=0;" parent="1" target="nz3eEwS2H0n0i6exMCSu-31" edge="1">
          <mxGeometry relative="1" as="geometry">
            <mxPoint x="80" y="310" as="sourcePoint" />
            <Array as="points">
              <mxPoint x="110" y="330" />
            </Array>
          </mxGeometry>
        </mxCell>
        <mxCell id="nz3eEwS2H0n0i6exMCSu-65" style="edgeStyle=none;rounded=0;orthogonalLoop=1;jettySize=auto;html=1;strokeWidth=1;fontFamily=Helvetica;fontSize=14;spacing=0;spacingTop=0;" parent="1" source="nz3eEwS2H0n0i6exMCSu-1" edge="1">
          <mxGeometry relative="1" as="geometry">
            <mxPoint x="110" y="249" as="sourcePoint" />
            <mxPoint x="450" y="175" as="targetPoint" />
            <Array as="points">
              <mxPoint x="100" y="240" />
              <mxPoint x="240" y="190" />
            </Array>
          </mxGeometry>
        </mxCell>
        <mxCell id="nz3eEwS2H0n0i6exMCSu-1" value="&lt;span&gt;&lt;font style=&quot;font-size: 13px&quot;&gt;Administrator&lt;/font&gt;&lt;/span&gt;" style="shape=umlActor;verticalLabelPosition=bottom;verticalAlign=top;html=1;outlineConnect=0;strokeWidth=3;fontFamily=Helvetica;spacing=0;spacingTop=0;fontStyle=0" parent="1" vertex="1">
          <mxGeometry x="60" y="200" width="40" height="80" as="geometry" />
        </mxCell>
        <mxCell id="nz3eEwS2H0n0i6exMCSu-72" style="edgeStyle=none;rounded=0;orthogonalLoop=1;jettySize=auto;html=1;exitX=0.5;exitY=1;exitDx=0;exitDy=0;entryX=1;entryY=0;entryDx=0;entryDy=0;strokeWidth=1;fontFamily=Helvetica;fontSize=14;spacing=0;spacingTop=0;" parent="1" source="nz3eEwS2H0n0i6exMCSu-15" target="nz3eEwS2H0n0i6exMCSu-69" edge="1">
          <mxGeometry relative="1" as="geometry">
            <Array as="points">
              <mxPoint x="740" y="640" />
            </Array>
          </mxGeometry>
        </mxCell>
        <mxCell id="nz3eEwS2H0n0i6exMCSu-15" value="&lt;span&gt;&lt;font style=&quot;font-size: 13px&quot;&gt;Database&lt;/font&gt;&lt;/span&gt;" style="shape=datastore;whiteSpace=wrap;html=1;fillColor=none;strokeWidth=2;fontFamily=Helvetica;spacing=0;spacingTop=0;fontStyle=0" parent="1" vertex="1">
          <mxGeometry x="725" y="370" width="70" height="90" as="geometry" />
        </mxCell>
        <mxCell id="nz3eEwS2H0n0i6exMCSu-54" style="edgeStyle=none;rounded=0;orthogonalLoop=1;jettySize=auto;html=1;entryX=0;entryY=0.5;entryDx=0;entryDy=0;strokeWidth=1;fontFamily=Helvetica;fontSize=14;spacing=0;spacingTop=0;" parent="1" target="nz3eEwS2H0n0i6exMCSu-39" edge="1">
          <mxGeometry relative="1" as="geometry">
            <mxPoint x="110" y="530" as="sourcePoint" />
            <Array as="points" />
          </mxGeometry>
        </mxCell>
        <mxCell id="nz3eEwS2H0n0i6exMCSu-55" style="edgeStyle=none;rounded=0;orthogonalLoop=1;jettySize=auto;html=1;strokeWidth=1;fontFamily=Helvetica;fontSize=14;spacing=0;spacingTop=0;entryX=0.02;entryY=0.383;entryDx=0;entryDy=0;entryPerimeter=0;" parent="1" target="HZq2xd75iQ1T5V56bEnD-14" edge="1">
          <mxGeometry relative="1" as="geometry">
            <mxPoint x="110" y="530" as="sourcePoint" />
            <mxPoint x="180" y="560" as="targetPoint" />
          </mxGeometry>
        </mxCell>
        <mxCell id="nz3eEwS2H0n0i6exMCSu-59" style="edgeStyle=none;rounded=0;orthogonalLoop=1;jettySize=auto;html=1;entryX=-0.012;entryY=0.617;entryDx=0;entryDy=0;strokeWidth=1;fontFamily=Helvetica;fontSize=14;entryPerimeter=0;spacing=0;spacingTop=0;" parent="1" target="nz3eEwS2H0n0i6exMCSu-31" edge="1">
          <mxGeometry relative="1" as="geometry">
            <mxPoint x="80" y="470" as="sourcePoint" />
            <Array as="points">
              <mxPoint x="110" y="370" />
            </Array>
          </mxGeometry>
        </mxCell>
        <mxCell id="nz3eEwS2H0n0i6exMCSu-70" style="edgeStyle=none;rounded=0;orthogonalLoop=1;jettySize=auto;html=1;entryX=0;entryY=0.5;entryDx=0;entryDy=0;strokeWidth=1;fontFamily=Helvetica;fontSize=14;spacing=0;spacingTop=0;" parent="1" target="nz3eEwS2H0n0i6exMCSu-69" edge="1">
          <mxGeometry relative="1" as="geometry">
            <mxPoint x="80" y="590" as="sourcePoint" />
            <Array as="points">
              <mxPoint x="130" y="830" />
            </Array>
          </mxGeometry>
        </mxCell>
        <mxCell id="nz3eEwS2H0n0i6exMCSu-25" value="&lt;span&gt;&lt;font style=&quot;font-size: 13px&quot;&gt;Recruiter&lt;/font&gt;&lt;/span&gt;" style="shape=umlActor;verticalLabelPosition=bottom;verticalAlign=top;html=1;outlineConnect=0;strokeWidth=3;fontFamily=Helvetica;spacing=0;spacingTop=0;fontStyle=0" parent="1" vertex="1">
          <mxGeometry x="60" y="480" width="40" height="80" as="geometry" />
        </mxCell>
        <mxCell id="nz3eEwS2H0n0i6exMCSu-26" value="&lt;span&gt;&lt;font style=&quot;font-size: 13px&quot;&gt;Applicant&lt;/font&gt;&lt;/span&gt;" style="shape=umlActor;verticalLabelPosition=bottom;verticalAlign=top;html=1;outlineConnect=0;strokeWidth=3;fontFamily=Helvetica;spacing=0;spacingTop=0;fontStyle=0" parent="1" vertex="1">
          <mxGeometry x="740" y="760" width="40" height="80" as="geometry" />
        </mxCell>
        <mxCell id="nz3eEwS2H0n0i6exMCSu-71" style="edgeStyle=none;rounded=0;orthogonalLoop=1;jettySize=auto;html=1;exitX=0.985;exitY=0.579;exitDx=0;exitDy=0;strokeWidth=1;fontFamily=Helvetica;fontSize=14;spacing=0;spacingTop=0;labelBackgroundColor=none;labelBorderColor=none;exitPerimeter=0;" parent="1" source="nz3eEwS2H0n0i6exMCSu-69" edge="1">
          <mxGeometry relative="1" as="geometry">
            <mxPoint x="730" y="810" as="targetPoint" />
            <Array as="points">
              <mxPoint x="610" y="880" />
            </Array>
          </mxGeometry>
        </mxCell>
        <mxCell id="nz3eEwS2H0n0i6exMCSu-89" style="edgeStyle=none;rounded=0;orthogonalLoop=1;jettySize=auto;html=1;exitX=0.5;exitY=1;exitDx=0;exitDy=0;entryX=0;entryY=0.444;entryDx=0;entryDy=0;labelBackgroundColor=none;strokeWidth=1;fontFamily=Helvetica;fontSize=11;entryPerimeter=0;" parent="1" source="nz3eEwS2H0n0i6exMCSu-31" target="nz3eEwS2H0n0i6exMCSu-15" edge="1">
          <mxGeometry relative="1" as="geometry">
            <Array as="points">
              <mxPoint x="300" y="430" />
              <mxPoint x="490" y="470" />
            </Array>
          </mxGeometry>
        </mxCell>
        <mxCell id="nz3eEwS2H0n0i6exMCSu-94" style="edgeStyle=none;rounded=0;orthogonalLoop=1;jettySize=auto;html=1;exitX=1;exitY=0.595;exitDx=0;exitDy=0;entryX=0.5;entryY=0;entryDx=0;entryDy=0;labelBackgroundColor=none;strokeWidth=1;fontFamily=Helvetica;fontSize=11;exitPerimeter=0;" parent="1" source="nz3eEwS2H0n0i6exMCSu-20" target="nz3eEwS2H0n0i6exMCSu-15" edge="1">
          <mxGeometry relative="1" as="geometry">
            <Array as="points">
              <mxPoint x="700" y="220" />
            </Array>
          </mxGeometry>
        </mxCell>
        <mxCell id="nz3eEwS2H0n0i6exMCSu-98" style="edgeStyle=none;rounded=0;orthogonalLoop=1;jettySize=auto;html=1;exitX=1;exitY=0.5;exitDx=0;exitDy=0;entryX=0;entryY=0.7;entryDx=0;entryDy=0;labelBackgroundColor=none;strokeWidth=1;fontFamily=Helvetica;fontSize=11;" parent="1" source="nz3eEwS2H0n0i6exMCSu-39" target="nz3eEwS2H0n0i6exMCSu-15" edge="1">
          <mxGeometry relative="1" as="geometry">
            <Array as="points">
              <mxPoint x="490" y="510" />
            </Array>
          </mxGeometry>
        </mxCell>
        <mxCell id="nz3eEwS2H0n0i6exMCSu-99" style="edgeStyle=none;rounded=0;orthogonalLoop=1;jettySize=auto;html=1;labelBackgroundColor=none;strokeWidth=1;fontFamily=Helvetica;fontSize=11;entryX=0.286;entryY=1;entryDx=0;entryDy=0;entryPerimeter=0;exitX=1;exitY=0.5;exitDx=0;exitDy=0;" parent="1" source="HZq2xd75iQ1T5V56bEnD-14" target="nz3eEwS2H0n0i6exMCSu-15" edge="1">
          <mxGeometry relative="1" as="geometry">
            <mxPoint x="368" y="580" as="sourcePoint" />
            <mxPoint x="690" y="441" as="targetPoint" />
            <Array as="points">
              <mxPoint x="710" y="560" />
            </Array>
          </mxGeometry>
        </mxCell>
      </root>
    </mxGraphModel>
  </diagram>
</mxfile>
